# xmcd CD database file
# Copyright (C) 1993-1996 Ti Kan
#
# Track frame offsets:
# 183
# 29133
# 62508
# 96783
# 119583
# 150368
# 179033
# 206083
# 241158
#
# Disc length: 3650 seconds
# Revision: 0
# Processed by: cddbd v1.4b41PL1 Copyright (c) Steve Scherf et al.
# Submitted via: CDSpectrumPro v3.2.328
#
DISCID=7b0e4009
DTITLE=Pankaj Udhas - Mehfil
DYEAR=1900
DGENRE=
TTITLE0=Dil Dhadakne Ka Sabab
TTITLE1=Koi Chara Nahin
TTITLE2=Na Samjho Ke Hum Pee Gaye
TTITLE3=Maza Lena Hai Peene Ka
TTITLE4=Kabhi Maikhane Tak Jaate
TTITLE5=Thodi Door Saath Chalo
TTITLE6=Maikada Tha Chandni Thi
TTITLE7=Kabhi Kabhi Tera Maikhana
TTITLE8=La Pilade Saqiya
EXTD=
EXTT0=
EXTT1=
EXTT2=
EXTT3=
EXTT4=
EXTT5=
EXTT6=
EXTT7=
EXTT8=
PLAYORDER=
